nColumns=28
nRows=35
DataType=double
version=3
OpenSimVersion=4.1
endheader
time	ground_force_1_vx	ground_force_1_vy	ground_force_1_vz	ground_force_1_px	ground_force_1_py	ground_force_1_pz	ground_force_1_mx	ground_force_1_my	ground_force_1_mz	ground_force_2_vx	ground_force_2_vy	ground_force_2_vz	ground_force_2_px	ground_force_2_py	ground_force_2_pz	ground_force_2_mx	ground_force_2_my	ground_force_2_mz	ground_force_3_vx	ground_force_3_vy	ground_force_3_vz	ground_force_3_px	ground_force_3_py	ground_force_3_pz	ground_force_3_mx	ground_force_3_my	ground_force_3_mz
10.13	-9.52106	444.895	-45.0488	-0.165412	0.006	-0.447934	0	-2.69114	0	8.16743	207.159	35.5678	-0.122709	0.006	-0.824133	0	-2.04271	0	0	0	0	0.00020805	0	-0.000117561	0	0	0
10.14	-8.82719	437.724	-44.8292	-0.166887	0.006	-0.448194	0	-2.64162	0	8.38653	210.608	36.4902	-0.124076	0.006	-0.824517	0	-2.02045	0	0	0	0	0.00020805	0	-0.000117561	0	0	0
10.15	-8.09992	430.532	-44.5677	-0.168383	0.006	-0.448453	0	-2.58437	0	8.60617	214.2	37.4058	-0.125424	0.006	-0.824909	0	-1.99151	0	0	0	0	0.00020805	0	-0.000117561	0	0	0
10.16	-7.35014	423.378	-44.2618	-0.169896	0.006	-0.448712	0	-2.52164	0	8.82466	217.982	38.3132	-0.126745	0.006	-0.825307	0	-1.95671	0	0	0	0	0.00020805	0	-0.000117561	0	0	0
10.17	-6.58995	416.314	-43.908	-0.171425	0.006	-0.448975	0	-2.45582	0	9.03483	222.008	39.2118	-0.128033	0.006	-0.825711	0	-1.91683	0	0	0	0	0.00020805	0	-0.000117561	0	0	0
10.18	-5.83144	409.395	-43.5023	-0.172968	0.006	-0.449246	0	-2.38942	0	9.225	226.334	40.1018	-0.129278	0.006	-0.826118	0	-1.87261	0	0	0	0	0.00020805	0	-0.000117561	0	0	0
10.19	-5.08557	402.665	-43.0411	-0.17452	0.006	-0.449524	0	-2.32497	0	9.38178	231.016	40.9843	-0.130473	0.006	-0.826526	0	-1.8248	0	0	0	0	0.00020805	0	-0.000117561	0	0	0
10.2	-4.36241	396.158	-42.5209	-0.176079	0.006	-0.449811	0	-2.2648	0	9.49041	236.108	41.8616	-0.131609	0.006	-0.826933	0	-1.77417	0	0	0	0	0.00020805	0	-0.000117561	0	0	0
10.21	-3.67206	389.891	-41.9399	-0.17764	0.006	-0.450106	0	-2.21096	0	9.53347	241.656	42.7372	-0.132676	0.006	-0.827337	0	-1.7214	0	0	0	0	0.00020805	0	-0.000117561	0	0	0
10.22	-3.02299	383.87	-41.2975	-0.179201	0.006	-0.450412	0	-2.16528	0	9.49189	247.698	43.6159	-0.133667	0.006	-0.827734	0	-1.66722	0	0	0	0	0.00020805	0	-0.000117561	0	0	0
10.23	-2.42067	378.09	-40.5943	-0.180761	0.006	-0.45073	0	-2.12938	0	9.34823	254.256	44.5039	-0.134575	0.006	-0.82812	0	-1.6123	0	0	0	0	0.00020805	0	-0.000117561	0	0	0
10.24	-1.86459	372.55	-39.8332	-0.182324	0.006	-0.451061	0	-2.10463	0	9.08994	261.337	45.4078	-0.1354	0.006	-0.828492	0	-1.55721	0	0	0	0	0.00020805	0	-0.000117561	0	0	0
10.25	-1.34717	367.255	-39.0219	-0.183892	0.006	-0.451406	0	-2.09203	0	8.71137	268.937	46.3346	-0.136142	0.006	-0.828847	0	-1.50246	0	0	0	0	0.00020805	0	-0.000117561	0	0	0
10.26	-0.85876	362.224	-38.1736	-0.185472	0.006	-0.451765	0	-2.09193	0	8.21329	277.033	47.2919	-0.136808	0.006	-0.829186	0	-1.44858	0	0	0	0	0.00020805	0	-0.000117561	0	0	0
10.27	-0.391902	357.488	-37.3069	-0.187065	0.006	-0.452137	0	-2.10403	0	7.60128	285.586	48.2866	-0.137406	0.006	-0.829509	0	-1.39614	0	0	0	0	0.00020805	0	-0.000117561	0	0	0
10.28	0.0580822	353.084	-36.4436	-0.188675	0.006	-0.452515	0	-2.12746	0	6.88545	294.537	49.3224	-0.137942	0.006	-0.829818	0	-1.34569	0	0	0	0	0.00020805	0	-0.000117561	0	0	0
10.29	0.494223	349.045	-35.6082	-0.190298	0.006	-0.452895	0	-2.16093	0	6.0799	303.811	50.3995	-0.138428	0.006	-0.830114	0	-1.29742	0	0	0	0	0.00020805	0	-0.000117561	0	0	0
10.3	0.919788	345.394	-34.8258	-0.191928	0.006	-0.45327	0	-2.20277	0	5.20189	313.319	51.5139	-0.138875	0.006	-0.830397	0	-1.25118	0	0	0	0	0.00020805	0	-0.000117561	0	0	0
10.31	1.33822	342.148	-34.1211	-0.193552	0.006	-0.45363	0	-2.25113	0	4.27026	322.97	52.6586	-0.139293	0.006	-0.830667	0	-1.20656	0	0	0	0	0.00020805	0	-0.000117561	0	0	0
10.32	1.75073	339.311	-33.5161	-0.195155	0.006	-0.453965	0	-2.30401	0	3.30363	332.663	53.8242	-0.139695	0.006	-0.830924	0	-1.16298	0	0	0	0	0.00020805	0	-0.000117561	0	0	0
10.33	2.15532	336.872	-33.026	-0.196715	0.006	-0.454266	0	-2.35949	0	2.31959	342.294	54.9977	-0.140094	0.006	-0.831166	0	-1.11992	0	0	0	0	0.00020805	0	-0.000117561	0	0	0
10.34	2.54712	334.805	-32.6574	-0.19821	0.006	-0.454526	0	-2.41578	0	1.33449	351.75	56.1618	-0.1405	0.006	-0.831391	0	-1.07705	0	0	0	0	0.00020805	0	-0.000117561	0	0	0
10.35	2.91863	333.065	-32.4078	-0.199615	0.006	-0.454737	0	-2.47111	0	0.363617	360.914	57.2952	-0.140927	0.006	-0.831597	0	-1.03399	0	0	0	0	0.00020805	0	-0.000117561	0	0	0
10.36	3.26023	331.598	-32.2662	-0.200907	0.006	-0.454897	0	-2.52384	0	-0.578621	369.675	58.3746	-0.141385	0.006	-0.831779	0	-0.990342	0	0	0	0	0.00020805	0	-0.000117561	0	0	0
10.37	3.5607	330.344	-32.2162	-0.202065	0.006	-0.455004	0	-2.57245	0	-1.47794	377.93	59.3771	-0.141886	0.006	-0.831934	0	-0.945838	0	0	0	0	0.00020805	0	-0.000117561	0	0	0
10.38	3.80717	329.244	-32.2383	-0.203071	0.006	-0.455056	0	-2.61543	0	-2.32023	385.592	60.2827	-0.142442	0.006	-0.832059	0	-0.900463	0	0	0	0	0.00020805	0	-0.000117561	0	0	0
10.39	3.98659	328.244	-32.3128	-0.203908	0.006	-0.455056	0	-2.65141	0	-3.09177	392.601	61.0756	-0.143065	0.006	-0.83215	0	-0.854429	0	0	0	0	0.00020805	0	-0.000117561	0	0	0
10.4	4.08773	327.296	-32.4214	-0.204566	0.006	-0.455006	0	-2.67923	0	-3.7787	398.922	61.7449	-0.143769	0.006	-0.832205	0	-0.808051	0	0	0	0	0.00020805	0	-0.000117561	0	0	0
10.41	4.10203	326.366	-32.5498	-0.205038	0.006	-0.454909	0	-2.69802	0	-4.36604	404.548	62.2846	-0.144571	0.006	-0.832218	0	-0.761678	0	0	0	0	0.00020805	0	-0.000117561	0	0	0
10.42	4.02338	325.437	-32.6883	-0.205322	0.006	-0.454767	0	-2.70726	0	-4.83661	409.497	62.6931	-0.145487	0.006	-0.832188	0	-0.715591	0	0	0	0	0.00020805	0	-0.000117561	0	0	0
10.43	3.84829	324.504	-32.8316	-0.205423	0.006	-0.454586	0	-2.70686	0	-5.17114	413.809	62.9729	-0.146536	0.006	-0.83211	0	-0.66996	0	0	0	0	0.00020805	0	-0.000117561	0	0	0
10.44	3.57683	323.571	-32.9778	-0.205351	0.006	-0.454369	0	-2.69713	0	-5.35045	417.539	63.1302	-0.147732	0.006	-0.83198	0	-0.62496	0	0	0	0	0.00020805	0	-0.000117561	0	0	0
10.45	3.21473	322.648	-33.127	-0.205122	0.006	-0.454124	0	-2.6788	0	-5.35763	420.753	63.1751	-0.149091	0.006	-0.831796	0	-0.580869	0	0	0	0	0.00020805	0	-0.000117561	0	0	0
10.46	2.77451	321.748	-33.2806	-0.204761	0.006	-0.453858	0	-2.65296	0	-5.17941	423.52	63.1201	-0.150621	0.006	-0.831557	0	-0.538103	0	0	0	0	0.00020805	0	-0.000117561	0	0	0
10.47	2.27467	320.885	-33.4403	-0.204295	0.006	-0.453579	0	-2.62092	0	-4.80637	425.899	62.9795	-0.152328	0.006	-0.831262	0	-0.497197	0	0	0	0	0.00020805	0	-0.000117561	0	0	0
